<?xml version="1.0" encoding="utf-8"?>
<!-- Generator: Adobe Illustrator 24.1.2, SVG Export Plug-In . SVG Version: 6.00 Build 0)  -->
<svg version="1.1" id="Layer_1" xmlns="http://www.w3.org/2000/svg" xmlns:xlink="http://www.w3.org/1999/xlink" x="0px" y="0px"
	 viewBox="0 0 595.28 595.28" style="enable-background:new 0 0 595.28 595.28;" xml:space="preserve">
<style type="text/css">
	.st0{fill:#66B85B;}
	.st1{fill:#FFFFFF;}
</style>
<path d="M465.68,181.47c-14.42-28.4-10.84-54.14,10.02-72.04c18.62-15.99,46.58-17.24,66.23-2.96
	c23.27,16.91,27.76,41.32,13.75,75.59c11.4,4.98,20.93,12.38,28.09,22.66c7.69,11.05,11.32,23.4,11.44,36.78
	c0.11,12.64,0.09,25.27,0.01,37.91c-0.07,11.18-5.23,16.33-16.37,16.34c-45.37,0.03-90.73,0.03-136.1,0
	c-11.45-0.01-16.41-4.89-16.45-16.13c-0.05-13.26-0.32-26.53,0.08-39.77c0.75-24.6,12.26-42.85,33.65-54.94
	c1.79-1.01,3.64-1.94,5.44-2.93C465.59,181.92,465.61,181.65,465.68,181.47z M567.45,268.1c0-10.8,0.98-21.4-0.21-31.75
	c-2.18-18.94-17.03-31.3-36.23-31.44c-14.07-0.1-28.15-0.17-42.22,0.04c-16.48,0.25-31.16,11.21-33.74,27.48
	c-1.84,11.59-0.36,23.7-0.36,35.67C492.04,268.1,529.62,268.1,567.45,268.1z M510.8,124.04c-14.65-0.04-26.73,11.63-26.94,26.03
	c-0.22,15.21,11.84,27.42,26.97,27.3c15.08-0.11,26.44-11.71,26.45-27.02C537.3,135.82,525.47,124.08,510.8,124.04z"/>
<path d="M39.91,181.88c-14.88-29.95-10.44-56.67,11.95-74.16c19.69-15.39,47.81-14.89,67.22,1.2c21.36,17.7,25.31,44.55,10.43,72.8
	c1.36,0.73,2.74,1.45,4.11,2.19c22.53,12.06,34.72,30.73,35.42,56.39c0.37,13.45,0.15,26.93,0.05,40.39
	c-0.07,9.74-5.29,15.03-15,15.05c-46.19,0.06-92.39,0.05-138.58,0.01c-8.9-0.01-14.91-4.75-15.09-13.05
	c-0.35-15.93-0.88-31.96,0.43-47.81c1.97-23.73,14.81-40.72,36.04-51.4C37.79,183.02,38.69,182.53,39.91,181.88z M141.73,268.25
	c0-9.8,0.18-19.06-0.04-28.32c-0.44-19.25-15.67-34.61-34.86-34.96c-14.69-0.27-29.39-0.21-44.08-0.01
	c-15.25,0.21-29.53,9.78-32.82,24.6c-2.76,12.43-2.29,25.58-3.27,38.69C65.92,268.25,103.35,268.25,141.73,268.25z M58.13,150.5
	c0.08,15.31,11.52,26.88,26.58,26.87c14.95-0.01,26.65-11.7,26.84-26.83c0.18-14.53-12.16-26.6-27.09-26.51
	C69.81,124.13,58.06,135.94,58.13,150.5z"/>
<path class="st0" d="M245.67,160.53c-17.2-34.42-12.6-64.93,12.74-85.95c22.1-18.33,55.19-19.04,77.84-1.65
	c26.88,20.63,31.93,50.19,14.85,87.78c22.81,10.36,38.61,27.19,44.12,51.87c2.35,10.53,1.95,21.72,2.32,32.63
	c0.35,10.46,0.18,20.94,0.05,31.4c-0.14,11.44-6.26,17.73-17.59,17.75c-54.53,0.08-109.07,0.07-163.6,0
	c-9.67-0.01-16.86-5.53-17.03-14.41c-0.38-19.7-1.26-39.55,0.71-59.08C202.87,193.08,216.88,176.03,245.67,160.53z M232.29,261.7
	c44.13,0,88.45,0,133.02,0c0-12.2,0.67-23.88-0.15-35.47c-1.51-21.29-19.27-38.03-40.55-38.53c-17.5-0.41-35.01-0.38-52.51,0
	c-19.44,0.41-36.76,14.28-39.47,33.52C230.81,234.27,232.29,247.78,232.29,261.7z M298.34,92.6c-17.14,0-31.23,13.88-31.32,30.85
	c-0.1,17.92,13.26,31.67,30.97,31.87c17.92,0.2,31.86-13.8,31.76-31.89C329.65,106.54,315.44,92.6,298.34,92.6z"/>
<path d="M465.68,420.62c-14.42-28.4-10.84-54.14,10.02-72.04c18.62-15.99,46.58-17.24,66.23-2.96
	c23.27,16.91,27.76,41.32,13.75,75.59c11.4,4.98,20.93,12.38,28.09,22.66c7.69,11.05,11.32,23.4,11.44,36.78
	c0.11,12.64,0.09,25.27,0.01,37.91c-0.07,11.18-5.23,16.33-16.37,16.34c-45.37,0.03-90.73,0.03-136.1,0
	c-11.45-0.01-16.41-4.89-16.45-16.13c-0.05-13.26-0.32-26.53,0.08-39.77c0.75-24.6,12.26-42.85,33.65-54.94
	c1.79-1.01,3.64-1.94,5.44-2.93C465.59,421.07,465.61,420.8,465.68,420.62z M567.45,507.24c0-10.8,0.98-21.4-0.21-31.75
	c-2.18-18.94-17.03-31.3-36.23-31.44c-14.07-0.1-28.15-0.17-42.22,0.04c-16.48,0.25-31.16,11.21-33.74,27.48
	c-1.84,11.59-0.36,23.7-0.36,35.67C492.04,507.24,529.62,507.24,567.45,507.24z M510.8,363.19c-14.65-0.04-26.73,11.63-26.94,26.03
	c-0.22,15.21,11.84,27.42,26.97,27.3c15.08-0.11,26.44-11.71,26.45-27.02C537.3,374.97,525.47,363.23,510.8,363.19z"/>
<path d="M39.91,421.03c-14.88-29.95-10.44-56.67,11.95-74.16c19.69-15.39,47.81-14.89,67.22,1.2c21.36,17.7,25.31,44.55,10.43,72.8
	c1.36,0.73,2.74,1.45,4.11,2.19c22.53,12.06,34.72,30.73,35.42,56.39c0.37,13.45,0.15,26.93,0.05,40.39
	c-0.07,9.74-5.29,15.03-15,15.05c-46.19,0.06-92.39,0.05-138.58,0.01c-8.9-0.01-14.91-4.75-15.09-13.05
	c-0.35-15.93-0.88-31.96,0.43-47.81c1.97-23.73,14.81-40.72,36.04-51.4C37.79,422.17,38.69,421.68,39.91,421.03z M141.73,507.4
	c0-9.8,0.18-19.06-0.04-28.32c-0.44-19.25-15.67-34.61-34.86-34.96c-14.69-0.27-29.39-0.21-44.08-0.01
	c-15.25,0.21-29.53,9.78-32.82,24.6c-2.76,12.43-2.29,25.58-3.27,38.69C65.92,507.4,103.35,507.4,141.73,507.4z M58.13,389.65
	c0.08,15.31,11.52,26.88,26.58,26.87c14.95-0.01,26.65-11.7,26.84-26.83c0.18-14.53-12.16-26.6-27.09-26.51
	C69.81,363.28,58.06,375.09,58.13,389.65z"/>
<path d="M252.92,420.96c-14.64-29.29-10.72-55.26,10.84-73.15c18.81-15.6,46.97-16.2,66.24-1.41c22.88,17.56,27.17,42.71,12.64,74.7
	c19.41,8.82,32.86,23.14,37.54,44.14c2,8.96,1.66,18.49,1.97,27.77c0.3,8.9,0.15,17.82,0.04,26.72c-0.12,9.74-5.33,15.09-14.97,15.1
	c-46.41,0.07-92.82,0.06-139.23,0c-8.23-0.01-14.35-4.7-14.49-12.26c-0.32-16.76-1.08-33.66,0.6-50.28
	C216.5,448.66,228.42,434.15,252.92,420.96z M241.54,507.05c37.55,0,75.27,0,113.2,0c0-10.38,0.57-20.33-0.12-30.18
	c-1.28-18.12-16.4-32.37-34.51-32.79c-14.89-0.34-29.8-0.32-44.69,0c-16.54,0.35-31.28,12.15-33.58,28.53
	C240.27,483.71,241.54,495.21,241.54,507.05z M297.74,363.15c-14.58,0-26.57,11.81-26.65,26.25c-0.08,15.25,11.28,26.95,26.35,27.12
	c15.25,0.17,27.12-11.74,27.03-27.14C324.39,375.01,312.3,363.15,297.74,363.15z"/>
<path class="st1" d="M510.8,363.19c14.67,0.04,26.49,11.79,26.48,26.32c-0.01,15.31-11.37,26.91-26.45,27.02
	c-15.13,0.11-27.19-12.1-26.97-27.3C484.08,374.82,496.15,363.15,510.8,363.19z"/>
</svg>
