<?xml version="1.0" encoding="utf-8"?>
<!-- Generator: Adobe Illustrator 24.1.2, SVG Export Plug-In . SVG Version: 6.00 Build 0)  -->
<svg version="1.1" id="Layer_1" xmlns="http://www.w3.org/2000/svg" xmlns:xlink="http://www.w3.org/1999/xlink" x="0px" y="0px"
	 viewBox="0 0 200 200" style="enable-background:new 0 0 200 200;" xml:space="preserve">
<style type="text/css">
	.st0{fill:#331111;}
	.st1{fill:#061A33;}
	.st2{fill:#500F1F;}
	.st3{fill:#F05023;}
	.st4{fill:#F37362;}
	.st5{fill:#8E64AA;}
	.st6{fill:#46B97B;}
	.st7{fill:#41B7EA;}
</style>
<path class="st0" d="M557.91,196.95h-99.83c-20.81,0-37.68-16.87-37.68-37.68v-95.6c0-20.81,16.87-37.68,37.68-37.68h99.83
	c20.81,0,37.68,16.87,37.68,37.68v95.6C595.59,180.08,578.72,196.95,557.91,196.95z"/>
<text transform="matrix(1.0763 0 0 1 453.0659 150.1253)" style="fill:#F89A1C; font-family:'MyriadPro-Semibold'; font-size:116.5968px;">Ai</text>
<path class="st1" d="M431.24,439.49h-99.83c-20.81,0-37.68-16.87-37.68-37.68v-95.6c0-20.81,16.87-37.68,37.68-37.68h99.83
	c20.81,0,37.68,16.87,37.68,37.68v95.6C468.93,422.62,452.05,439.49,431.24,439.49z"/>
<g>
	
		<text transform="matrix(1.0763 0 0 1 323.7729 392.6629)" style="fill:#48A1D9; font-family:'MyriadPro-Semibold'; font-size:116.5968px;">Ps</text>
</g>
<path class="st2" d="M663.89,464.78h-99.83c-20.81,0-37.68-16.87-37.68-37.68v-95.6c0-20.81,16.87-37.68,37.68-37.68h99.83
	c20.81,0,37.68,16.87,37.68,37.68v95.6C701.58,447.91,684.7,464.78,663.89,464.78z"/>
<text transform="matrix(1.0763 0 0 1 561.6733 417.948)" style="fill:#EE3769; font-family:'MyriadPro-Semibold'; font-size:116.5968px;">Id</text>
<rect x="72.11" y="16.32" class="st3" width="27.89" height="55.79"/>
<rect x="100" y="16.32" class="st4" width="27.89" height="55.79"/>
<rect x="72.11" y="72.11" class="st5" width="27.89" height="55.79"/>
<rect x="72.11" y="127.89" class="st6" width="27.89" height="27.89"/>
<path class="st3" d="M72.11,72.11L72.11,72.11c-15.41,0-27.89-12.49-27.89-27.89v0c0-15.41,12.49-27.89,27.89-27.89h0
	c15.41,0,27.89,12.49,27.89,27.89v0C100,59.62,87.51,72.11,72.11,72.11z"/>
<path class="st4" d="M127.89,72.11L127.89,72.11c-15.41,0-27.89-12.49-27.89-27.89v0c0-15.41,12.49-27.89,27.89-27.89h0
	c15.41,0,27.89,12.49,27.89,27.89v0C155.79,59.62,143.3,72.11,127.89,72.11z"/>
<path class="st5" d="M72.11,127.89L72.11,127.89c-15.41,0-27.89-12.49-27.89-27.89v0c0-15.41,12.49-27.89,27.89-27.89h0
	C87.51,72.11,100,84.59,100,100v0C100,115.41,87.51,127.89,72.11,127.89z"/>
<path class="st6" d="M72.11,183.68L72.11,183.68c-15.41,0-27.89-12.49-27.89-27.89v0c0-15.41,12.49-27.89,27.89-27.89h0
	c15.41,0,27.89,12.49,27.89,27.89v0C100,171.19,87.51,183.68,72.11,183.68z"/>
<path class="st7" d="M127.89,127.89L127.89,127.89c-15.41,0-27.89-12.49-27.89-27.89v0c0-15.41,12.49-27.89,27.89-27.89h0
	c15.41,0,27.89,12.49,27.89,27.89v0C155.79,115.41,143.3,127.89,127.89,127.89z"/>
</svg>
