<?xml version="1.0" encoding="utf-8"?>
<!-- Generator: Adobe Illustrator 24.1.2, SVG Export Plug-In . SVG Version: 6.00 Build 0)  -->
<svg version="1.1" id="Layer_1" xmlns="http://www.w3.org/2000/svg" xmlns:xlink="http://www.w3.org/1999/xlink" x="0px" y="0px"
	 viewBox="0 0 200 200" style="enable-background:new 0 0 200 200;" xml:space="preserve">
<style type="text/css">
	.st0{fill:#331111;}
	.st1{enable-background:new    ;}
	.st2{fill:#F89A1C;}
	.st3{fill:#061A33;}
	.st4{fill:#500F1F;}
	.st5{fill:#F05023;}
	.st6{fill:#F37362;}
	.st7{fill:#8E64AA;}
	.st8{fill:#46B97B;}
	.st9{fill:#41B7EA;}
</style>
<path class="st0" d="M149.9,185.5H50.1c-20.8,0-37.7-16.9-37.7-37.7V52.2c0-20.8,16.9-37.7,37.7-37.7h99.8
	c20.8,0,37.7,16.9,37.7,37.7v95.6C187.6,168.6,170.7,185.5,149.9,185.5z"/>
<g class="st1">
	<path class="st2" d="M70.9,116.4l-7.3,22.3H47.7l27.1-78.6h19.7l27.5,78.6h-16.7l-7.7-22.3H70.9z M95.1,105.5l-6.7-19.4
		c-1.6-4.8-3-10.1-4.3-14.7H84c-1.3,4.5-2.6,10-4,14.7l-6.5,19.4H95.1z"/>
	<path class="st2" d="M149,66c0,4.2-3.4,7.7-8.8,7.7c-5.1,0-8.5-3.5-8.5-7.7c0-4.4,3.5-7.8,8.7-7.8C145.6,58.2,148.9,61.6,149,66z
		 M132.5,138.7V81.9H148v56.8H132.5z"/>
</g>
<path class="st3" d="M431.2,439.5h-99.8c-20.8,0-37.7-16.9-37.7-37.7v-95.6c0-20.8,16.9-37.7,37.7-37.7h99.8
	c20.8,0,37.7,16.9,37.7,37.7v95.6C468.9,422.6,452,439.5,431.2,439.5z"/>
<g>
	
		<text transform="matrix(1.0763 0 0 1 323.7734 392.6628)" style="fill:#48A1D9; font-family:'MyriadPro-Semibold'; font-size:116.5968px;">Ps</text>
</g>
<path class="st4" d="M663.9,464.8h-99.8c-20.8,0-37.7-16.9-37.7-37.7v-95.6c0-20.8,16.9-37.7,37.7-37.7h99.8
	c20.8,0,37.7,16.9,37.7,37.7v95.6C701.6,447.9,684.7,464.8,663.9,464.8z"/>
<text transform="matrix(1.0763 0 0 1 561.6738 417.9479)" style="fill:#EE3769; font-family:'MyriadPro-Semibold'; font-size:116.5968px;">Id</text>
<rect x="271.6" y="16.3" class="st5" width="27.9" height="55.8"/>
<rect x="299.5" y="16.3" class="st6" width="27.9" height="55.8"/>
<rect x="271.6" y="72.1" class="st7" width="27.9" height="55.8"/>
<rect x="271.6" y="127.9" class="st8" width="27.9" height="27.9"/>
<path class="st5" d="M271.6,72.1L271.6,72.1c-15.4,0-27.9-12.5-27.9-27.9l0,0c0-15.4,12.5-27.9,27.9-27.9l0,0
	c15.4,0,27.9,12.5,27.9,27.9l0,0C299.5,59.6,287,72.1,271.6,72.1z"/>
<path class="st6" d="M327.4,72.1L327.4,72.1c-15.4,0-27.9-12.5-27.9-27.9l0,0c0-15.4,12.5-27.9,27.9-27.9l0,0
	c15.4,0,27.9,12.5,27.9,27.9l0,0C355.3,59.6,342.8,72.1,327.4,72.1z"/>
<path class="st7" d="M271.6,127.9L271.6,127.9c-15.4,0-27.9-12.5-27.9-27.9l0,0c0-15.4,12.5-27.9,27.9-27.9l0,0
	c15.4,0,27.9,12.5,27.9,27.9l0,0C299.5,115.4,287,127.9,271.6,127.9z"/>
<path class="st8" d="M271.6,183.7L271.6,183.7c-15.4,0-27.9-12.5-27.9-27.9l0,0c0-15.4,12.5-27.9,27.9-27.9l0,0
	c15.4,0,27.9,12.5,27.9,27.9l0,0C299.5,171.2,287,183.7,271.6,183.7z"/>
<path class="st9" d="M327.4,127.9L327.4,127.9c-15.4,0-27.9-12.5-27.9-27.9l0,0c0-15.4,12.5-27.9,27.9-27.9l0,0
	c15.4,0,27.9,12.5,27.9,27.9l0,0C355.3,115.4,342.8,127.9,327.4,127.9z"/>
</svg>
