<?xml version="1.0" encoding="utf-8"?>
<!-- Generator: Adobe Illustrator 24.1.2, SVG Export Plug-In . SVG Version: 6.00 Build 0)  -->
<svg version="1.1" id="Layer_1" xmlns="http://www.w3.org/2000/svg" xmlns:xlink="http://www.w3.org/1999/xlink" x="0px" y="0px"
	 viewBox="0 0 200 200" style="enable-background:new 0 0 200 200;" xml:space="preserve">
<style type="text/css">
	.st0{fill:#331111;}
	.st1{fill:#061A33;}
	.st2{fill:#500F1F;}
	.st3{enable-background:new    ;}
	.st4{fill:#EE3769;}
	.st5{fill:#F05023;}
	.st6{fill:#F37362;}
	.st7{fill:#8E64AA;}
	.st8{fill:#46B97B;}
	.st9{fill:#41B7EA;}
</style>
<path class="st0" d="M514.5,181.8h-99.8c-20.8,0-37.7-16.9-37.7-37.7V48.5c0-20.8,16.9-37.7,37.7-37.7h99.8
	c20.8,0,37.7,16.9,37.7,37.7v95.6C552.2,165,535.3,181.8,514.5,181.8z"/>
<text transform="matrix(1.0763 0 0 1 409.6592 134.9889)" style="fill:#F89A1C; font-family:'MyriadPro-Semibold'; font-size:116.5968px;">Ai</text>
<path class="st1" d="M399.4,371h-99.8c-20.8,0-37.7-16.9-37.7-37.7v-95.6c0-20.8,16.9-37.7,37.7-37.7h99.8
	c20.8,0,37.7,16.9,37.7,37.7v95.6C437.1,354.1,420.2,371,399.4,371z"/>
<g>
	
		<text transform="matrix(1.0763 0 0 1 291.9253 324.1442)" style="fill:#48A1D9; font-family:'MyriadPro-Semibold'; font-size:116.5968px;">Ps</text>
</g>
<path class="st2" d="M149.9,185.5H50.1c-20.8,0-37.7-16.9-37.7-37.7V52.2c0-20.8,16.9-37.7,37.7-37.7h99.8
	c20.8,0,37.7,16.9,37.7,37.7v95.6C187.6,168.6,170.7,185.5,149.9,185.5z"/>
<g class="st3">
	<path class="st4" d="M72,60.1v78.6H56.6V60.1H72z"/>
	<path class="st4" d="M145.5,55.9v66.8c0,5.8,0.3,12.1,0.5,16h-13.7l-0.8-9h-0.3c-3.6,6.3-11,10.3-19.8,10.3
		c-14.7,0-26.2-11.5-26.2-29c-0.1-19,12.7-30.3,27.4-30.3c8.4,0,14.4,3.1,17.2,7.3h0.3V55.9H145.5z M130,105.5
		c0-1.2-0.1-2.7-0.4-3.8c-1.4-5.5-6.3-10-13.3-10c-9.9,0-15.4,8.2-15.4,18.7c0,10.5,5.5,18.1,15.3,18.1c6.3,0,11.8-4,13.3-10.1
		c0.4-1.3,0.5-2.7,0.5-4.2V105.5z"/>
</g>
<rect x="271.6" y="16.3" class="st5" width="27.9" height="55.8"/>
<rect x="299.5" y="16.3" class="st6" width="27.9" height="55.8"/>
<rect x="271.6" y="72.1" class="st7" width="27.9" height="55.8"/>
<rect x="271.6" y="127.9" class="st8" width="27.9" height="27.9"/>
<path class="st5" d="M271.6,72.1L271.6,72.1c-15.4,0-27.9-12.5-27.9-27.9l0,0c0-15.4,12.5-27.9,27.9-27.9l0,0
	c15.4,0,27.9,12.5,27.9,27.9l0,0C299.5,59.6,287,72.1,271.6,72.1z"/>
<path class="st6" d="M327.4,72.1L327.4,72.1c-15.4,0-27.9-12.5-27.9-27.9l0,0c0-15.4,12.5-27.9,27.9-27.9l0,0
	c15.4,0,27.9,12.5,27.9,27.9l0,0C355.3,59.6,342.8,72.1,327.4,72.1z"/>
<path class="st7" d="M271.6,127.9L271.6,127.9c-15.4,0-27.9-12.5-27.9-27.9l0,0c0-15.4,12.5-27.9,27.9-27.9l0,0
	c15.4,0,27.9,12.5,27.9,27.9l0,0C299.5,115.4,287,127.9,271.6,127.9z"/>
<path class="st8" d="M271.6,183.7L271.6,183.7c-15.4,0-27.9-12.5-27.9-27.9l0,0c0-15.4,12.5-27.9,27.9-27.9l0,0
	c15.4,0,27.9,12.5,27.9,27.9l0,0C299.5,171.2,287,183.7,271.6,183.7z"/>
<path class="st9" d="M327.4,127.9L327.4,127.9c-15.4,0-27.9-12.5-27.9-27.9l0,0c0-15.4,12.5-27.9,27.9-27.9l0,0
	c15.4,0,27.9,12.5,27.9,27.9l0,0C355.3,115.4,342.8,127.9,327.4,127.9z"/>
</svg>
