<?xml version="1.0" encoding="utf-8"?>
<!-- Generator: Adobe Illustrator 24.1.2, SVG Export Plug-In . SVG Version: 6.00 Build 0)  -->
<svg version="1.1" id="Layer_1" xmlns="http://www.w3.org/2000/svg" xmlns:xlink="http://www.w3.org/1999/xlink" x="0px" y="0px"
	 viewBox="0 0 200 200" style="enable-background:new 0 0 200 200;" xml:space="preserve">
<style type="text/css">
	.st0{fill:#331111;}
	.st1{fill:#061A33;}
	.st2{enable-background:new    ;}
	.st3{fill:#48A1D9;}
	.st4{fill:#500F1F;}
	.st5{fill:#F05023;}
	.st6{fill:#F37362;}
	.st7{fill:#8E64AA;}
	.st8{fill:#46B97B;}
	.st9{fill:#41B7EA;}
</style>
<path class="st0" d="M514.5,181.8h-99.8c-20.8,0-37.7-16.9-37.7-37.7V48.5c0-20.8,16.9-37.7,37.7-37.7h99.8
	c20.8,0,37.7,16.9,37.7,37.7v95.6C552.2,165,535.3,181.8,514.5,181.8z"/>
<text transform="matrix(1.0763 0 0 1 409.6592 134.9889)" style="fill:#F89A1C; font-family:'MyriadPro-Semibold'; font-size:116.5968px;">Ai</text>
<path class="st1" d="M149.9,185.5H50.1c-20.8,0-37.7-16.9-37.7-37.7V52.2c0-20.8,16.9-37.7,37.7-37.7h99.8
	c20.8,0,37.7,16.9,37.7,37.7v95.6C187.6,168.6,170.7,185.5,149.9,185.5z"/>
<g class="st2">
	<path class="st3" d="M51.4,61.1c5.6-0.9,13.3-1.6,23.6-1.6c11.3,0,19.5,2.2,24.8,6.4c5,3.8,8.3,10,8.3,17.4
		c0,7.5-2.5,13.5-7.2,17.7c-6.3,5.7-15.8,8.5-26.7,8.5c-2.9,0-5.4-0.1-7.5-0.6v29.7H51.4V61.1z M66.7,97.6c2,0.6,4.4,0.7,7.5,0.7
		c11.5,0,18.6-5.4,18.6-14.5c0-8.7-6.5-13.3-17.2-13.3c-4.3,0-7.3,0.3-8.9,0.7V97.6z"/>
	<path class="st3" d="M117.6,125.4c3.4,2,10,4.2,15.6,4.2c6.8,0,9.8-2.7,9.8-6.4c0-3.8-2.5-5.7-10-8.3c-11.9-3.7-16.8-9.8-16.8-16.6
		c0-10,8.9-17.7,23.1-17.7c6.8,0,12.7,1.5,16.3,3.4l-3.1,10c-2.5-1.4-7.5-3.3-12.9-3.3c-5.5,0-8.5,2.6-8.5,6.1
		c0,3.6,2.9,5.2,10.7,7.9c11.2,3.6,16.2,8.9,16.3,17.3c0,10.4-8.7,17.8-24.8,17.8c-7.4,0-14.1-1.6-18.6-4L117.6,125.4z"/>
</g>
<path class="st4" d="M663.9,464.8h-99.8c-20.8,0-37.7-16.9-37.7-37.7v-95.6c0-20.8,16.9-37.7,37.7-37.7h99.8
	c20.8,0,37.7,16.9,37.7,37.7v95.6C701.6,447.9,684.7,464.8,663.9,464.8z"/>
<text transform="matrix(1.0763 0 0 1 561.6738 417.9479)" style="fill:#EE3769; font-family:'MyriadPro-Semibold'; font-size:116.5968px;">Id</text>
<rect x="271.6" y="16.3" class="st5" width="27.9" height="55.8"/>
<rect x="299.5" y="16.3" class="st6" width="27.9" height="55.8"/>
<rect x="271.6" y="72.1" class="st7" width="27.9" height="55.8"/>
<rect x="271.6" y="127.9" class="st8" width="27.9" height="27.9"/>
<path class="st5" d="M271.6,72.1L271.6,72.1c-15.4,0-27.9-12.5-27.9-27.9l0,0c0-15.4,12.5-27.9,27.9-27.9l0,0
	c15.4,0,27.9,12.5,27.9,27.9l0,0C299.5,59.6,287,72.1,271.6,72.1z"/>
<path class="st6" d="M327.4,72.1L327.4,72.1c-15.4,0-27.9-12.5-27.9-27.9l0,0c0-15.4,12.5-27.9,27.9-27.9l0,0
	c15.4,0,27.9,12.5,27.9,27.9l0,0C355.3,59.6,342.8,72.1,327.4,72.1z"/>
<path class="st7" d="M271.6,127.9L271.6,127.9c-15.4,0-27.9-12.5-27.9-27.9l0,0c0-15.4,12.5-27.9,27.9-27.9l0,0
	c15.4,0,27.9,12.5,27.9,27.9l0,0C299.5,115.4,287,127.9,271.6,127.9z"/>
<path class="st8" d="M271.6,183.7L271.6,183.7c-15.4,0-27.9-12.5-27.9-27.9l0,0c0-15.4,12.5-27.9,27.9-27.9l0,0
	c15.4,0,27.9,12.5,27.9,27.9l0,0C299.5,171.2,287,183.7,271.6,183.7z"/>
<path class="st9" d="M327.4,127.9L327.4,127.9c-15.4,0-27.9-12.5-27.9-27.9l0,0c0-15.4,12.5-27.9,27.9-27.9l0,0
	c15.4,0,27.9,12.5,27.9,27.9l0,0C355.3,115.4,342.8,127.9,327.4,127.9z"/>
</svg>
