<?xml version="1.0" encoding="utf-8"?>
<!-- Generator: Adobe Illustrator 24.1.2, SVG Export Plug-In . SVG Version: 6.00 Build 0)  -->
<svg version="1.1" id="Layer_1" xmlns="http://www.w3.org/2000/svg" xmlns:xlink="http://www.w3.org/1999/xlink" x="0px" y="0px"
	 viewBox="0 0 386 386" style="enable-background:new 0 0 386 386;" xml:space="preserve">
<g transform="translate(0.000000,386.000000) scale(0.100000,-0.100000)">
	<path d="M1768.8,3854.3c-347.5-40.2-590-119.6-841.4-273.8c-419-255.9-730.7-668.2-858.1-1135.2
		C-177.6,1540.3,251.5,596.2,1092.8,192.8c455.9-219,963.2-252.5,1440.3-95C3113,288.9,3571.1,747,3762.2,1326.9
		c157.5,477.1,124,984.4-95,1440.3c-289.4,604.5-864.8,1009-1537.5,1082.7C2028.1,3861,1843.7,3863.3,1768.8,3854.3z M1307.4,2957.1
		c90.5-25.7,154.2-114,154.2-213.4c0-116.2-70.4-200-188.8-222.4c-188.8-35.8-337.4,112.9-286,286
		C1023.6,2932.5,1162.1,2997.3,1307.4,2957.1z M2651.5,2348.2c155.3-40.2,270.4-153.1,326.3-321.8l30.2-91.6l4.5-454.8l4.5-455.9
		h-219h-219v367.6c0,368.7-6.7,450.3-40.2,521.8c-54.8,116.2-229.1,143-329.6,52.5c-89.4-81.6-88.3-73.7-88.3-534.1v-407.8h-220.1
		h-221.2v653.6v653.6h221.2h220.1v-84.9v-84.9l58.1,63.7c58.1,64.8,133,109.5,206.7,127.4C2453.8,2368.3,2580,2366,2651.5,2348.2z
		 M1439.2,1677.8v-653.6h-217.9h-217.9v653.6v653.6h217.9h217.9V1677.8z"/>
</g>
</svg>
